<svg width="33" height="33" viewBox="0 0 33 33" fill="none" xmlns="http://www.w3.org/2000/svg">
<path d="M4.07591 33C2.9955 32.9983 1.95986 32.6132 1.19589 31.9292C0.431919 31.2451 0.00192059 30.3178 2.01204e-05 29.3503V3.65144C-0.00223176 3.01042 0.184577 2.38023 0.541618 1.82462C0.898658 1.269 1.41323 0.807658 2.03329 0.487264C2.65336 0.16687 3.35694 -0.00121182 4.07284 6.57712e-06C4.78873 0.00122498 5.49158 0.171696 6.11028 0.494199L30.9646 13.3453C31.5834 13.6649 32.0973 14.1249 32.4546 14.6788C32.8119 15.2328 33 15.8612 33 16.5009C33 17.1406 32.8119 17.769 32.4546 18.3229C32.0973 18.8769 31.5834 19.3368 30.9646 19.6565L6.11028 32.5076C5.49302 32.8278 4.79284 32.9975 4.07951 33H4.07591Z" fill="#CD3F97"/>
</svg>
