<svg width="33" height="33" viewBox="0 0 33 33" fill="none" xmlns="http://www.w3.org/2000/svg">
<path d="M28.9241 33C30.0045 32.9983 31.0401 32.6132 31.8041 31.9292C32.5681 31.2451 32.9981 30.3178 33 29.3503V3.65144C33.0022 3.01042 32.8154 2.38023 32.4584 1.82462C32.1013 1.269 31.5868 0.807658 30.9667 0.487264C30.3466 0.16687 29.6431 -0.00121182 28.9272 6.57712e-06C28.2113 0.00122498 27.5084 0.171696 26.8897 0.494199L2.03538 13.3453C1.41659 13.6649 0.902702 14.1249 0.545414 14.6788C0.188126 15.2328 0 15.8612 0 16.5009C0 17.1406 0.188126 17.769 0.545414 18.3229C0.902702 18.8769 1.41659 19.3368 2.03538 19.6565L26.8897 32.5076C27.507 32.8278 28.2072 32.9975 28.9205 33H28.9241Z" fill="#CD3F97"/>
</svg>
